<mxfile host="app.diagrams.net" modified="2021-07-04T14:39:04.146Z" agent="5.0 (Windows NT 10.0; Win64; x64) AppleWebKit/537.36 (KHTML, like Gecko) Chrome/91.0.4472.124 Safari/537.36" etag="lS5oSrpv8bq4KsJMqu1Z" version="14.8.4" type="github">
  <diagram id="bY-Eiq5B4Y1L39nDWaPA" name="Page-1">
    <mxGraphModel dx="868" dy="450" grid="1" gridSize="10" guides="1" tooltips="1" connect="1" arrows="1" fold="1" page="1" pageScale="1" pageWidth="850" pageHeight="1100" math="0" shadow="0">
      <root>
        <mxCell id="0" />
        <mxCell id="1" parent="0" />
        <mxCell id="U9HXg87GdfsvRDTg_hJd-1" value="" style="edgeStyle=orthogonalEdgeStyle;rounded=0;orthogonalLoop=1;jettySize=auto;html=1;" edge="1" parent="1" source="U9HXg87GdfsvRDTg_hJd-2" target="U9HXg87GdfsvRDTg_hJd-11">
          <mxGeometry relative="1" as="geometry" />
        </mxCell>
        <mxCell id="U9HXg87GdfsvRDTg_hJd-2" value="User with Bid" style="rounded=1;whiteSpace=wrap;html=1;" vertex="1" parent="1">
          <mxGeometry x="160" y="160" width="120" height="60" as="geometry" />
        </mxCell>
        <mxCell id="U9HXg87GdfsvRDTg_hJd-3" style="edgeStyle=orthogonalEdgeStyle;rounded=0;orthogonalLoop=1;jettySize=auto;html=1;entryX=0.5;entryY=0;entryDx=0;entryDy=0;" edge="1" parent="1" source="U9HXg87GdfsvRDTg_hJd-4" target="U9HXg87GdfsvRDTg_hJd-11">
          <mxGeometry relative="1" as="geometry" />
        </mxCell>
        <mxCell id="U9HXg87GdfsvRDTg_hJd-4" value="User with Bid" style="rounded=1;whiteSpace=wrap;html=1;" vertex="1" parent="1">
          <mxGeometry x="160" y="250" width="120" height="60" as="geometry" />
        </mxCell>
        <mxCell id="U9HXg87GdfsvRDTg_hJd-5" style="edgeStyle=orthogonalEdgeStyle;rounded=0;orthogonalLoop=1;jettySize=auto;html=1;entryX=0.5;entryY=0;entryDx=0;entryDy=0;" edge="1" parent="1" source="U9HXg87GdfsvRDTg_hJd-6" target="U9HXg87GdfsvRDTg_hJd-11">
          <mxGeometry relative="1" as="geometry" />
        </mxCell>
        <mxCell id="U9HXg87GdfsvRDTg_hJd-6" value="User with Bid" style="rounded=1;whiteSpace=wrap;html=1;" vertex="1" parent="1">
          <mxGeometry x="160" y="370" width="120" height="60" as="geometry" />
        </mxCell>
        <mxCell id="U9HXg87GdfsvRDTg_hJd-7" value="..." style="text;html=1;strokeColor=none;fillColor=none;align=center;verticalAlign=middle;whiteSpace=wrap;rounded=0;rotation=-90;" vertex="1" parent="1">
          <mxGeometry x="200" y="330" width="40" height="20" as="geometry" />
        </mxCell>
        <mxCell id="U9HXg87GdfsvRDTg_hJd-8" style="edgeStyle=orthogonalEdgeStyle;rounded=0;orthogonalLoop=1;jettySize=auto;html=1;entryX=0;entryY=0.5;entryDx=0;entryDy=0;" edge="1" parent="1" source="U9HXg87GdfsvRDTg_hJd-11" target="U9HXg87GdfsvRDTg_hJd-13">
          <mxGeometry relative="1" as="geometry" />
        </mxCell>
        <mxCell id="U9HXg87GdfsvRDTg_hJd-9" style="edgeStyle=orthogonalEdgeStyle;rounded=0;orthogonalLoop=1;jettySize=auto;html=1;entryX=0;entryY=0.5;entryDx=0;entryDy=0;" edge="1" parent="1" source="U9HXg87GdfsvRDTg_hJd-11" target="U9HXg87GdfsvRDTg_hJd-14">
          <mxGeometry relative="1" as="geometry" />
        </mxCell>
        <mxCell id="U9HXg87GdfsvRDTg_hJd-10" style="edgeStyle=orthogonalEdgeStyle;rounded=0;orthogonalLoop=1;jettySize=auto;html=1;entryX=0;entryY=0.5;entryDx=0;entryDy=0;" edge="1" parent="1" source="U9HXg87GdfsvRDTg_hJd-11" target="U9HXg87GdfsvRDTg_hJd-16">
          <mxGeometry relative="1" as="geometry" />
        </mxCell>
        <mxCell id="U9HXg87GdfsvRDTg_hJd-11" value="LB" style="rounded=1;whiteSpace=wrap;html=1;rotation=-90;" vertex="1" parent="1">
          <mxGeometry x="235" y="265" width="270" height="60" as="geometry" />
        </mxCell>
        <mxCell id="U9HXg87GdfsvRDTg_hJd-20" style="edgeStyle=orthogonalEdgeStyle;rounded=0;orthogonalLoop=1;jettySize=auto;html=1;entryX=0.5;entryY=1;entryDx=0;entryDy=0;entryPerimeter=0;" edge="1" parent="1" source="U9HXg87GdfsvRDTg_hJd-13" target="U9HXg87GdfsvRDTg_hJd-19">
          <mxGeometry relative="1" as="geometry" />
        </mxCell>
        <mxCell id="U9HXg87GdfsvRDTg_hJd-13" value="Bid App Server" style="rounded=1;whiteSpace=wrap;html=1;" vertex="1" parent="1">
          <mxGeometry x="450" y="160" width="120" height="60" as="geometry" />
        </mxCell>
        <mxCell id="U9HXg87GdfsvRDTg_hJd-14" value="Bid App Server" style="rounded=1;whiteSpace=wrap;html=1;" vertex="1" parent="1">
          <mxGeometry x="450" y="250" width="120" height="60" as="geometry" />
        </mxCell>
        <mxCell id="U9HXg87GdfsvRDTg_hJd-21" style="edgeStyle=orthogonalEdgeStyle;rounded=0;orthogonalLoop=1;jettySize=auto;html=1;" edge="1" parent="1" source="U9HXg87GdfsvRDTg_hJd-16">
          <mxGeometry relative="1" as="geometry">
            <mxPoint x="700" y="280" as="targetPoint" />
            <Array as="points">
              <mxPoint x="635" y="400" />
              <mxPoint x="635" y="280" />
            </Array>
          </mxGeometry>
        </mxCell>
        <mxCell id="U9HXg87GdfsvRDTg_hJd-16" value="Bid App Server" style="rounded=1;whiteSpace=wrap;html=1;" vertex="1" parent="1">
          <mxGeometry x="450" y="370" width="120" height="60" as="geometry" />
        </mxCell>
        <mxCell id="U9HXg87GdfsvRDTg_hJd-17" value="..." style="text;html=1;strokeColor=none;fillColor=none;align=center;verticalAlign=middle;whiteSpace=wrap;rounded=0;rotation=-90;" vertex="1" parent="1">
          <mxGeometry x="490" y="330" width="40" height="20" as="geometry" />
        </mxCell>
        <mxCell id="U9HXg87GdfsvRDTg_hJd-18" style="edgeStyle=orthogonalEdgeStyle;rounded=0;orthogonalLoop=1;jettySize=auto;html=1;" edge="1" parent="1" target="U9HXg87GdfsvRDTg_hJd-19">
          <mxGeometry relative="1" as="geometry">
            <mxPoint x="570" y="280" as="sourcePoint" />
            <mxPoint x="625" y="295" as="targetPoint" />
            <Array as="points">
              <mxPoint x="600" y="280" />
              <mxPoint x="600" y="280" />
            </Array>
          </mxGeometry>
        </mxCell>
        <mxCell id="U9HXg87GdfsvRDTg_hJd-23" value="" style="edgeStyle=orthogonalEdgeStyle;rounded=0;orthogonalLoop=1;jettySize=auto;html=1;" edge="1" parent="1" source="U9HXg87GdfsvRDTg_hJd-19" target="U9HXg87GdfsvRDTg_hJd-22">
          <mxGeometry relative="1" as="geometry" />
        </mxCell>
        <mxCell id="U9HXg87GdfsvRDTg_hJd-19" value="Distributed MQ" style="shape=cylinder3;whiteSpace=wrap;html=1;boundedLbl=1;backgroundOutline=1;size=15;rotation=90;" vertex="1" parent="1">
          <mxGeometry x="725" y="225" width="60" height="110" as="geometry" />
        </mxCell>
        <mxCell id="U9HXg87GdfsvRDTg_hJd-26" style="edgeStyle=orthogonalEdgeStyle;rounded=0;orthogonalLoop=1;jettySize=auto;html=1;" edge="1" parent="1" source="U9HXg87GdfsvRDTg_hJd-22" target="U9HXg87GdfsvRDTg_hJd-24">
          <mxGeometry relative="1" as="geometry" />
        </mxCell>
        <mxCell id="U9HXg87GdfsvRDTg_hJd-30" value="" style="edgeStyle=orthogonalEdgeStyle;rounded=0;orthogonalLoop=1;jettySize=auto;html=1;" edge="1" parent="1" source="U9HXg87GdfsvRDTg_hJd-22" target="U9HXg87GdfsvRDTg_hJd-29">
          <mxGeometry relative="1" as="geometry" />
        </mxCell>
        <mxCell id="U9HXg87GdfsvRDTg_hJd-22" value="Matching Engine" style="whiteSpace=wrap;html=1;" vertex="1" parent="1">
          <mxGeometry x="695" y="540" width="120" height="60" as="geometry" />
        </mxCell>
        <mxCell id="U9HXg87GdfsvRDTg_hJd-25" style="edgeStyle=orthogonalEdgeStyle;rounded=0;orthogonalLoop=1;jettySize=auto;html=1;entryX=0;entryY=0.5;entryDx=0;entryDy=0;" edge="1" parent="1" source="U9HXg87GdfsvRDTg_hJd-24" target="U9HXg87GdfsvRDTg_hJd-22">
          <mxGeometry relative="1" as="geometry" />
        </mxCell>
        <mxCell id="U9HXg87GdfsvRDTg_hJd-24" value="Bid in-memory DB" style="shape=cylinder3;whiteSpace=wrap;html=1;boundedLbl=1;backgroundOutline=1;size=15;" vertex="1" parent="1">
          <mxGeometry x="490" y="515" width="120" height="110" as="geometry" />
        </mxCell>
        <mxCell id="U9HXg87GdfsvRDTg_hJd-29" value="Stock DB" style="shape=cylinder;whiteSpace=wrap;html=1;boundedLbl=1;backgroundOutline=1;" vertex="1" parent="1">
          <mxGeometry x="710" y="670" width="90" height="120" as="geometry" />
        </mxCell>
      </root>
    </mxGraphModel>
  </diagram>
</mxfile>
